# xmcd CD database file
#
# Track frame offsets:
#	150
#	14381
#	29921
#	45465
#	59940
#	72043
#	84143
#	98291
#	112831
#	128424
#	140437
#	154152
#	168512
#	180443
#	193128
#	206798
#	221056
#	232473
#	247193
#	262660
#
# Disc length: 3684 seconds
#
# Revision: 0
# Processed by: cddbd v1.5.1PL0 Copyright (c) Steve Scherf et al.
# Submitted via: CDex 1.51
#
DISCID=1c0e6214
DTITLE=Ray Ventura et ses collégiens - Qu'est-ce qu'on attend pour être heureux
DYEAR=1900
DGENRE=Jazz
TTITLE0=Qu'est-ce qu'on attend pour être heureux
TTITLE1=Tout va très bien madame la marquise
TTITLE2=Ça vaut mieux que d'attraper la scarlatine
TTITLE3=Les chemises de l'archiduchesse
TTITLE4=Tiens ! Tiens ! Tiens !
TTITLE5=Le chef d'orchestre n'aime pas la musique
TTITLE6=Le nez de Cléopâtre
TTITLE7=On ira pendre notre linge sur la ligne Siegfried
TTITLE8=C'est idiot mais c'est marrant
TTITLE9=Il y a des jours où toute les femmes sont jolies
TTITLE10=Et puis d'abord qu'est-ce que ça peut vous faire ?
TTITLE11=Les moines de Saint-Bernardin
TTITLE12=À la mi-août
TTITLE13=Le général dort debout
TTITLE14=Je voudrais en savoir d'avantage
TTITLE15=Les trois mandarins
TTITLE16=Vive les bananes
TTITLE17=C'est ce qui fait son charme
TTITLE18=Le refrain des chevaux de bois
TTITLE19=Vous permettez que je déballe mes outils ?
EXTD=
EXTT0=
EXTT1=
EXTT2=
EXTT3=
EXTT4=
EXTT5=
EXTT6=
EXTT7=
EXTT8=
EXTT9=
EXTT10=
EXTT11=
EXTT12=
EXTT13=
EXTT14=
EXTT15=
EXTT16=
EXTT17=
EXTT18=
EXTT19=
PLAYORDER=
